<svg width="56" height="56" viewBox="0 0 56 56" fill="none" xmlns="http://www.w3.org/2000/svg">
<path d="M28 51.3333C15.134 51.3333 4.66667 40.866 4.66667 28C4.66667 15.134 15.134 4.66666 28 4.66667C40.866 4.66667 51.3333 15.134 51.3333 28C51.3333 40.866 40.866 51.3333 28 51.3333ZM28 56C43.463 56 56 43.463 56 28C56 12.537 43.463 -1.09602e-06 28 -2.44784e-06C12.537 -3.79966e-06 3.79966e-06 12.537 2.44784e-06 28C1.09602e-06 43.463 12.537 56 28 56ZM23.3333 28L33.8333 17.5L30.2703 14L16.3333 28L30.2703 42L33.8333 38.5L23.3333 28Z" fill="white"/>
</svg>
