<svg width="44" height="14" viewBox="0 0 44 14" fill="none" xmlns="http://www.w3.org/2000/svg">
<path fill-rule="evenodd" clip-rule="evenodd" d="M36.3794 13.7071C36.0056 13.3166 36.0056 12.6834 36.3794 12.2929L40.4877 8H1.64671C1.11816 8 0.689697 7.55228 0.689697 7C0.689697 6.44772 1.11816 6 1.64671 6H40.4877L36.3794 1.70711C36.0056 1.31658 36.0056 0.683418 36.3794 0.292893C36.7531 -0.0976311 37.3591 -0.0976311 37.7328 0.292893L43.4748 6.29289C43.5735 6.39596 43.6461 6.51593 43.6927 6.64388C43.7233 6.72803 43.7427 6.81563 43.7508 6.90415C43.7537 6.93602 43.7551 6.96801 43.7551 7C43.7551 7.02277 43.7544 7.04554 43.7529 7.06826C43.7464 7.16904 43.7256 7.26572 43.6927 7.35612C43.6461 7.48407 43.5735 7.60404 43.4748 7.70711L37.7328 13.7071C37.3591 14.0976 36.7531 14.0976 36.3794 13.7071Z" fill="white"/>
</svg>
